<svg width="18" height="18" viewBox="0 0 18 18" fill="none" xmlns="http://www.w3.org/2000/svg">
<path fill-rule="evenodd" clip-rule="evenodd" d="M9.00002 0.666626C4.39765 0.666626 0.666687 4.39759 0.666687 8.99996C0.666687 13.6023 4.39765 17.3333 9.00002 17.3333C13.6024 17.3333 17.3334 13.6023 17.3334 8.99996C17.3334 6.78982 16.4554 4.67021 14.8926 3.1074C13.3298 1.5446 11.2102 0.666626 9.00002 0.666626ZM9.00002 15.6666C5.31812 15.6666 2.33335 12.6819 2.33335 8.99996C2.33335 5.31806 5.31812 2.33329 9.00002 2.33329C12.6819 2.33329 15.6667 5.31806 15.6667 8.99996C15.6667 10.7681 14.9643 12.4638 13.7141 13.714C12.4638 14.9642 10.7681 15.6666 9.00002 15.6666ZM11.6 6.07496C11.762 5.91615 12.0213 5.91615 12.1834 6.07496L12.6 6.51663C12.6789 6.59486 12.7233 6.70136 12.7233 6.81246C12.7233 6.92356 12.6789 7.03006 12.6 7.10829L7.91669 11.7916C7.84108 11.8722 7.73551 11.9179 7.62502 11.9179C7.51453 11.9179 7.40897 11.8722 7.33335 11.7916L5.37502 9.81663C5.29614 9.73839 5.25177 9.63189 5.25177 9.52079C5.25177 9.40969 5.29614 9.3032 5.37502 9.22496L5.81669 8.78329C5.8923 8.70273 5.99787 8.65703 6.10835 8.65703C6.21884 8.65703 6.32441 8.70273 6.40002 8.78329L7.65002 10.025L11.6 6.07496Z" fill="white"/>
</svg>
