<svg width="13" height="15" viewBox="0 0 13 15" fill="none" xmlns="http://www.w3.org/2000/svg">
<path fill-rule="evenodd" clip-rule="evenodd" d="M6.50002 11.3346C6.38953 11.3346 6.28397 11.2889 6.20835 11.2083L1.38335 6.38333C1.30447 6.3051 1.2601 6.1986 1.2601 6.0875C1.2601 5.9764 1.30447 5.8699 1.38335 5.79167L1.55002 5.625C1.62842 5.54362 1.73703 5.49836 1.85002 5.5H4.00002V0.916667C4.00002 0.686548 4.18657 0.5 4.41669 0.5H8.58335C8.81347 0.5 9.00002 0.686548 9.00002 0.916667V5.5H11.15C11.263 5.49836 11.3716 5.54362 11.45 5.625L11.6167 5.79167C11.6956 5.8699 11.7399 5.9764 11.7399 6.0875C11.7399 6.1986 11.6956 6.3051 11.6167 6.38333L6.79169 11.2083C6.71608 11.2889 6.61051 11.3346 6.50002 11.3346ZM12.3334 14.25V13.4167C12.3334 13.1865 12.1468 13 11.9167 13H1.08335C0.853235 13 0.666687 13.1865 0.666687 13.4167V14.25C0.666687 14.4801 0.853235 14.6667 1.08335 14.6667H11.9167C12.1468 14.6667 12.3334 14.4801 12.3334 14.25Z" fill="white"/>
</svg>
