<svg width="18" height="18" viewBox="0 0 18 18" fill="none" xmlns="http://www.w3.org/2000/svg">
<path fill-rule="evenodd" clip-rule="evenodd" d="M8.99999 0.666626C4.39762 0.666626 0.666656 4.39759 0.666656 8.99996C0.666656 13.6023 4.39762 17.3333 8.99999 17.3333C13.6024 17.3333 17.3333 13.6023 17.3333 8.99996C17.3333 6.78982 16.4553 4.67021 14.8925 3.1074C13.3297 1.5446 11.2101 0.666626 8.99999 0.666626ZM8.99999 15.6666C5.31809 15.6666 2.33332 12.6819 2.33332 8.99996C2.33332 5.31806 5.31809 2.33329 8.99999 2.33329C12.6819 2.33329 15.6667 5.31806 15.6667 8.99996C15.6667 10.7681 14.9643 12.4638 13.714 13.714C12.4638 14.9642 10.7681 15.6666 8.99999 15.6666ZM11.1333 6.42496L11.575 6.86663C11.6556 6.94224 11.7013 7.0478 11.7013 7.15829C11.7013 7.26878 11.6556 7.37435 11.575 7.44996L10.0333 8.99996L11.575 10.55C11.6556 10.6256 11.7013 10.7311 11.7013 10.8416C11.7013 10.9521 11.6556 11.0577 11.575 11.1333L11.1333 11.575C11.0577 11.6555 10.9521 11.7012 10.8417 11.7012C10.7312 11.7012 10.6256 11.6555 10.55 11.575L8.99999 10.0333L7.44999 11.575C7.37438 11.6555 7.26881 11.7012 7.15832 11.7012C7.04784 11.7012 6.94227 11.6555 6.86666 11.575L6.42499 11.1333C6.34443 11.0577 6.29872 10.9521 6.29872 10.8416C6.29872 10.7311 6.34443 10.6256 6.42499 10.55L7.96666 8.99996L6.42499 7.44996C6.34443 7.37435 6.29872 7.26878 6.29872 7.15829C6.29872 7.0478 6.34443 6.94224 6.42499 6.86663L6.86666 6.42496C6.94227 6.3444 7.04784 6.29869 7.15832 6.29869C7.26881 6.29869 7.37438 6.3444 7.44999 6.42496L8.99999 7.96663L10.55 6.42496C10.6256 6.3444 10.7312 6.29869 10.8417 6.29869C10.9521 6.29869 11.0577 6.3444 11.1333 6.42496Z" fill="white"/>
</svg>
