<svg width="18" height="18" viewBox="0 0 18 18" fill="none" xmlns="http://www.w3.org/2000/svg">
<path fill-rule="evenodd" clip-rule="evenodd" d="M0 3C0 1.34315 1.34315 0 3 0H15C16.6569 0 18 1.34315 18 3V15C18 16.6569 16.6569 18 15 18H3C1.34315 18 0 16.6569 0 15V3ZM3 2C2.44772 2 2 2.44772 2 3V9H3.58579C4.11622 9 4.62493 9.21071 5 9.58579L7.41421 12H10.5858L13 9.58579C13.3751 9.21071 13.8838 9 14.4142 9H16V3C16 2.44772 15.5523 2 15 2H3ZM16 11H14.4142L12 13.4142C11.6249 13.7893 11.1162 14 10.5858 14H7.41421C6.88378 14 6.37507 13.7893 6 13.4142L3.58579 11H2V15C2 15.5523 2.44772 16 3 16H15C15.5523 16 16 15.5523 16 15V11Z" fill="#002B48"/>
</svg>
