<svg width="57" height="70" viewBox="0 0 57 70" fill="none" xmlns="http://www.w3.org/2000/svg">
<g opacity="0.3">
<path opacity="0.3" d="M39.781 14.3637C38.2263 14.3622 36.7357 13.728 35.6364 12.6006C34.537 11.4731 33.9188 9.94436 33.9173 8.34987V0H7.71538C5.68584 0 3.73943 0.826892 2.30433 2.29873C0.869226 3.77056 0.0629883 5.76675 0.0629883 7.84824V55.1595C0.0660021 57.239 0.873563 59.2322 2.30834 60.7015C3.74312 62.1709 5.68781 62.9961 7.71538 62.9961H39.1696C41.1972 62.9961 43.1419 62.1709 44.5766 60.7015C46.0114 59.2322 46.819 57.239 46.822 55.1595V14.3637H39.781Z" fill="#01A1B7"/>
</g>
<path d="M46.8183 14.3637H39.7773C38.2226 14.3622 36.732 13.728 35.6327 12.6006C34.5333 11.4731 33.9151 9.94436 33.9136 8.34987V0L46.8183 14.3637Z" fill="#01A1B7"/>
<path d="M37.2011 43.9911H7.84276C7.55993 43.9911 7.28869 43.8758 7.0887 43.6707C6.88871 43.4656 6.77637 43.1875 6.77637 42.8974C6.77712 42.6078 6.8898 42.3304 7.08971 42.1259C7.28961 41.9214 7.56042 41.8066 7.84276 41.8066H37.2011C37.4832 41.8066 37.7537 41.9215 37.9532 42.1261C38.1526 42.3306 38.2647 42.6081 38.2647 42.8974C38.265 43.0409 38.2378 43.183 38.1845 43.3157C38.1313 43.4484 38.053 43.5689 37.9542 43.6705C37.8554 43.7721 37.738 43.8528 37.6088 43.9078C37.4796 43.9628 37.341 43.9911 37.2011 43.9911Z" fill="#01A1B7"/>
<path d="M37.2011 31.6757H7.84276C7.56042 31.6757 7.28961 31.5608 7.08971 31.3563C6.8898 31.1518 6.77712 30.8745 6.77637 30.5849C6.77637 30.2948 6.88871 30.0166 7.0887 29.8115C7.28869 29.6064 7.55993 29.4912 7.84276 29.4912H37.2011C37.341 29.4912 37.4796 29.5195 37.6088 29.5745C37.738 29.6295 37.8554 29.7101 37.9542 29.8117C38.053 29.9133 38.1313 30.0339 38.1845 30.1666C38.2378 30.2992 38.265 30.4414 38.2647 30.5849C38.2647 30.8742 38.1526 31.1516 37.9532 31.3562C37.7537 31.5607 37.4832 31.6757 37.2011 31.6757Z" fill="#01A1B7"/>
<path d="M37.2011 37.8334H7.84276C7.55993 37.8334 7.28869 37.7181 7.0887 37.513C6.88871 37.3079 6.77637 37.0298 6.77637 36.7397C6.77712 36.4501 6.8898 36.1727 7.08971 35.9682C7.28961 35.7637 7.56042 35.6489 7.84276 35.6489H37.2011C37.4832 35.6489 37.7537 35.7639 37.9532 35.9684C38.1526 36.173 38.2647 36.4504 38.2647 36.7397C38.265 36.8832 38.2378 37.0253 38.1845 37.158C38.1313 37.2907 38.053 37.4113 37.9542 37.5129C37.8554 37.6145 37.738 37.6951 37.6088 37.7501C37.4796 37.8051 37.341 37.8334 37.2011 37.8334Z" fill="#01A1B7"/>
<path d="M25.6216 25.5153H7.84276C7.56042 25.5153 7.28961 25.4005 7.08971 25.196C6.8898 24.9915 6.77712 24.7141 6.77637 24.4245C6.77637 24.1344 6.88871 23.8563 7.0887 23.6512C7.28869 23.446 7.55993 23.3308 7.84276 23.3308H25.6216C25.9039 23.3316 26.1744 23.4471 26.3738 23.6522C26.5732 23.8572 26.6851 24.1349 26.6851 24.4245C26.6844 24.7135 26.5721 24.9905 26.3728 25.1949C26.1735 25.3993 25.9034 25.5145 25.6216 25.5153Z" fill="#01A1B7"/>
<path d="M25.6216 19.3512H7.84276C7.56042 19.3512 7.28961 19.2363 7.08971 19.0318C6.8898 18.8274 6.77712 18.55 6.77637 18.2604C6.77637 17.9704 6.88871 17.6921 7.0887 17.487C7.28869 17.2819 7.55993 17.1667 7.84276 17.1667H25.6216C25.9039 17.1675 26.1744 17.2831 26.3738 17.4881C26.5732 17.6931 26.6851 17.9709 26.6851 18.2604C26.6844 18.5495 26.5721 18.8265 26.3728 19.0309C26.1735 19.2352 25.9034 19.3504 25.6216 19.3512Z" fill="#01A1B7"/>
<path d="M52.3693 49.7595H16.8116C14.2893 49.7595 12.2446 51.8566 12.2446 54.4434V65.3161C12.2446 67.9029 14.2893 69.9999 16.8116 69.9999H52.3693C54.8916 69.9999 56.9363 67.9029 56.9363 65.3161V54.4434C56.9363 51.8566 54.8916 49.7595 52.3693 49.7595Z" fill="#01A1B7"/>
<path d="M23.9109 62.2334V64.3537H21.7725V62.2334H23.9109Z" fill="white"/>
<path d="M27.0527 61.2745V64.3514H24.9854V55.5815H28.3352C29.3504 55.5815 30.1268 55.8411 30.6585 56.3573C30.9276 56.6285 31.1377 56.955 31.2749 57.3154C31.4122 57.6758 31.4735 58.062 31.4548 58.4484C31.4651 58.9583 31.3424 59.4617 31.0993 59.9066C30.8511 60.3416 30.483 60.6917 30.0415 60.9129C29.5088 61.1711 28.9241 61.296 28.3352 61.2775L27.0527 61.2745ZM29.3504 58.4484C29.3504 57.6707 28.9353 57.2818 28.1049 57.2818H27.0527V59.5654H28.1049C28.9353 59.5732 29.3504 59.2009 29.3504 58.4484Z" fill="white"/>
<path d="M39.627 62.2373C39.271 62.9005 38.7331 63.442 38.08 63.7948C37.3452 64.1806 36.528 64.372 35.7027 64.3518H32.4751V55.582H35.7027C36.5286 55.5606 37.347 55.7479 38.0857 56.1273C38.737 56.4725 39.2735 57.0085 39.627 57.6672C39.997 58.3665 40.1832 59.1525 40.1673 59.9479C40.1827 60.7461 39.9966 61.5347 39.627 62.2373ZM37.4032 61.7969C37.6344 61.5536 37.8135 61.2635 37.9291 60.9451C38.0446 60.6267 38.0941 60.2871 38.0743 59.9479C38.0942 59.6092 38.0448 59.27 37.9292 58.952C37.8136 58.6341 37.6345 58.3445 37.4032 58.1018C36.886 57.6363 36.2104 57.3994 35.5236 57.4426H34.5425V62.4531H35.5236C36.2098 62.4959 36.8849 62.2602 37.4032 61.7969Z" fill="white"/>
<path d="M46.9168 55.5815V57.2702H43.4106V59.1921H46.1178V60.8049H43.4106V64.3514H41.3403V55.5815H46.9168Z" fill="white"/>
<path d="M36.6823 17.1667H31.6546C30.7783 17.1667 30.0679 17.8954 30.0679 18.7941V23.9505C30.0679 24.8493 30.7783 25.5779 31.6546 25.5779H36.6823C37.5587 25.5779 38.2691 24.8493 38.2691 23.9505V18.7941C38.2691 17.8954 37.5587 17.1667 36.6823 17.1667Z" fill="#01A1B7"/>
</svg>
