<svg width="18" height="18" viewBox="0 0 18 18" fill="none" xmlns="http://www.w3.org/2000/svg">
<path fill-rule="evenodd" clip-rule="evenodd" d="M6.3 1.8C4.80883 1.8 3.6 3.00883 3.6 4.5C3.6 5.99117 4.80883 7.2 6.3 7.2C7.10237 7.2 7.82298 6.85001 8.31752 6.29437C8.32216 6.28899 8.32688 6.28365 8.33166 6.27835C8.74779 5.80334 9 5.18112 9 4.5C9 3.81886 8.74778 3.19663 8.33164 2.72162C8.32687 2.71634 8.32217 2.71102 8.31755 2.70566C7.82301 2.15 7.10238 1.8 6.3 1.8ZM9.00009 0.899739C8.24798 0.334777 7.31309 0 6.3 0C3.81472 0 1.8 2.01472 1.8 4.5C1.8 6.98528 3.81472 9 6.3 9C7.31309 9 8.24798 8.66522 9.00009 8.10026C9.75182 8.66468 10.6871 9 11.7 9C14.1853 9 16.2 6.98528 16.2 4.5C16.2 2.01472 14.1853 0 11.7 0C10.6871 0 9.75182 0.335319 9.00009 0.899739ZM10.2004 2.25421C10.5818 2.91515 10.8 3.68209 10.8 4.5C10.8 5.31791 10.5818 6.08485 10.2004 6.74579C10.6296 7.0331 11.145 7.2 11.7 7.2C13.1912 7.2 14.4 5.99117 14.4 4.5C14.4 3.00883 13.1912 1.8 11.7 1.8C11.145 1.8 10.6296 1.9669 10.2004 2.25421ZM6.3 11.7C3.81472 11.7 1.8 13.7147 1.8 16.2H10.8C10.8 13.7147 8.78528 11.7 6.3 11.7ZM12.6 16.2H16.2C16.2 13.7147 14.1853 11.7 11.7 11.7C11.3912 11.7 11.0899 11.731 10.7991 11.79C11.9131 12.9264 12.6 14.483 12.6 16.2ZM9.00025 10.5064C8.18186 10.1176 7.26634 9.9 6.3 9.9C2.82061 9.9 0 12.7206 0 16.2V17.1C0 17.5971 0.402944 18 0.9 18H17.1C17.5971 18 18 17.5971 18 17.1V16.2C18 12.7206 15.1794 9.9 11.7 9.9C10.7352 9.9 9.81926 10.1175 9.00025 10.5064Z" fill="#002B48"/>
</svg>
