<svg width="20" height="18" viewBox="0 0 20 18" fill="none" xmlns="http://www.w3.org/2000/svg">
<path fill-rule="evenodd" clip-rule="evenodd" d="M7 3C7 1.34315 8.34315 0 10 0C11.6569 0 13 1.34315 13 3H17C18.6569 3 20 4.34315 20 6V15C20 16.6569 18.6569 18 17 18H3C1.34315 18 0 16.6569 0 15V6C0 4.34315 1.34315 3 3 3H7ZM7.17071 5H3C2.44772 5 2 5.44772 2 6V15C2 15.5523 2.44772 16 3 16H17C17.5523 16 18 15.5523 18 15V6C18 5.44771 17.5523 5 17 5H12.8293C12.4175 6.16519 11.3062 7 10 7C8.69378 7 7.58254 6.16519 7.17071 5ZM10 2C9.44771 2 9 2.44772 9 3V4C9 4.55228 9.44772 5 10 5C10.5523 5 11 4.55228 11 4V3C11 2.44772 10.5523 2 10 2ZM7 9C6.44772 9 6 9.44771 6 10C6 10.5523 6.44772 11 7 11C7.55228 11 8 10.5523 8 10C8 9.44771 7.55228 9 7 9ZM9.40022 11.8C9.77683 11.2986 10 10.6754 10 10C10 8.34315 8.65685 7 7 7C5.34315 7 4 8.34315 4 10C4 10.6754 4.22316 11.2986 4.59976 11.8C3.9753 12.2692 3.49285 12.9169 3.22781 13.6668C3.04377 14.1875 3.31669 14.7588 3.83741 14.9428C4.35812 15.1269 4.92945 14.854 5.11349 14.3332C5.38852 13.5551 6.13073 13 7 13C7.86923 13 8.61136 13.5551 8.8864 14.3332C9.07045 14.854 9.64177 15.1269 10.1625 14.9428C10.6832 14.7588 10.9561 14.1875 10.7721 13.6668C10.5071 12.9169 10.0246 12.2693 9.40022 11.8ZM12 9C12 8.44772 12.4477 8 13 8H16C16.5523 8 17 8.44772 17 9C17 9.55229 16.5523 10 16 10H13C12.4477 10 12 9.55229 12 9ZM12 13C12 12.4477 12.4477 12 13 12H15C15.5523 12 16 12.4477 16 13C16 13.5523 15.5523 14 15 14H13C12.4477 14 12 13.5523 12 13Z" fill="#002B48"/>
</svg>
